# xmcd CD database file
#
# Track frame offsets:
#	150
#	13178
#	27346
#	39346
#	52779
#	68310
#	81125
#	95459
#	109805
#	122488
#	134477
#	145963
#	159110
#	173381
#	187894
#	201922
#	215833
#	228931
#	240192
#	252626
#
# Disc length: 3561 seconds
#
# Revision: 0
# Processed by: cddbd v1.5.1PL0 Copyright (c) Steve Scherf et al.
# Submitted via: CDex 1.51
#
DISCID=fe0de714
DTITLE=Duke Ellington - The Great Big Band Collection [Joan #7149, 2002]
DYEAR=1941
DGENRE=Jazz
TTITLE0=Chelsea Bridge
TTITLE1=Perdido
TTITLE2=The 'C' Jam Blues
TTITLE3=Moon Mist
TTITLE4=What Am I Here For?
TTITLE5=I Don't Mind
TTITLE6=Someone
TTITLE7=My Little Brown Book
TTITLE8=Main Stem
TTITLE9=Johnny Come Lately
TTITLE10=Haywood, Strawfoot
TTITLE11=Jump for Joy
TTITLE12=Moon Over Cuba
TTITLE13=Five O'Clock Drag
TTITLE14=Rocks In My Bed
TTITLE15=Bli-Blip
TTITLE16=Chelsea Bridge
TTITLE17=Raincheck
TTITLE18=What Good Would It Do?
TTITLE19=I DOn't Know What Kind of Blues I Got
EXTD=YEAR: 1941
EXTT0=
EXTT1=
EXTT2=
EXTT3=
EXTT4=
EXTT5=
EXTT6=
EXTT7=
EXTT8=
EXTT9=
EXTT10=
EXTT11=
EXTT12=
EXTT13=
EXTT14=
EXTT15=
EXTT16=
EXTT17=
EXTT18=
EXTT19=
PLAYORDER=
